<svg xmlns="http://www.w3.org/2000/svg" width="1600" height="900" viewBox="0 0 1600 900" role="img" aria-labelledby="title desc">
  <title id="title">From JSON rule to explainable decision</title>
  <desc id="desc">Neuron-JS inspectability diagram showing business input and serializable rule JSON passing through schema validation, developer-owned registry constraints, deterministic Synapse evaluation, result output, match/fail trace, and audit-ready decision. A dashed error branch shows validation errors returning to a repair loop.</desc>
  <metadata>Asset: NJS-GROWTH-07 explainability-trace-diagram. Package: @sebasoft/neuron-js. Sources: docs/schemas-validation-explainability.md, docs/benchmarks/visual-proof-system.md, docs/benchmarks/prompt-kit.md, chaos-vault NJS-GROWTH-07 evidence notes. Integrity: no benchmark or performance claims.</metadata>
  <defs>
    <pattern id="grid" width="40" height="40" patternUnits="userSpaceOnUse"><path d="M40 0H0v40" fill="none" stroke="#1e293b" stroke-width="0.7"/></pattern>
    <filter id="glow" x="-20%" y="-20%" width="140%" height="140%"><feGaussianBlur stdDeviation="3" result="b"/><feMerge><feMergeNode in="b"/><feMergeNode in="SourceGraphic"/></feMerge></filter>
    <marker id="cyanArrow" markerWidth="12" markerHeight="8" refX="10" refY="4" orient="auto"><path d="M0 0l12 4-12 4z" fill="#22d3ee"/></marker>
    <marker id="violetArrow" markerWidth="12" markerHeight="8" refX="10" refY="4" orient="auto"><path d="M0 0l12 4-12 4z" fill="#a78bfa"/></marker>
    <marker id="roseArrow" markerWidth="12" markerHeight="8" refX="10" refY="4" orient="auto"><path d="M0 0l12 4-12 4z" fill="#fb7185"/></marker>
    <style><![CDATA[
      .bg{fill:#020617}.card{fill:#0f172a}.text{font-family:Inter,system-ui,-apple-system,BlinkMacSystemFont,"Segoe UI",sans-serif;fill:#e5e7eb}.mono{font-family:"JetBrains Mono",SFMono-Regular,Menlo,Consolas,monospace;fill:#e5e7eb}.muted{fill:#94a3b8}.title{font-size:44px;font-weight:750;letter-spacing:-.04em}.cap{font-size:20px;font-weight:500}.nodeTitle{font-size:23px;font-weight:700}.nodeSub{font-size:16px;font-weight:500}.tiny{font-size:14px;font-weight:500}.label{font-size:22px;font-weight:650}.micro{font-size:18px;font-weight:500}
    ]]></style>
  </defs>
  <rect class="bg" width="1600" height="900"/><rect width="1600" height="900" fill="url(#grid)" opacity=".72"/><rect x="32" y="32" width="1536" height="836" rx="28" fill="rgba(15,23,42,.62)" stroke="#1e293b" stroke-width="2"/>
  <circle cx="78" cy="78" r="10" fill="#22d3ee" filter="url(#glow)"/><text x="104" y="92" class="text title">From JSON rule to explainable decision</text><text x="104" y="126" class="text cap muted">@sebasoft/neuron-js: validate inputs, constrain execution vocabulary, run deterministically, then inspect why a rule matched or failed.</text>
  <rect x="1120" y="62" width="388" height="72" rx="14" fill="rgba(251,191,36,.08)" stroke="#fbbf24" stroke-width="1.5"/><text x="1144" y="91" class="mono micro" fill="#fbbf24">Integrity note</text><text x="1144" y="118" class="mono tiny muted">No benchmark numbers or speed claims in this asset.</text>
  <path d="M252 390h79M498 390h79M744 390h79M990 390h79" fill="none" stroke="#22d3ee" stroke-width="4" marker-end="url(#cyanArrow)"/><path d="M1236 390h79" fill="none" stroke="#a78bfa" stroke-width="4" marker-end="url(#violetArrow)"/>
  <path d="M414 500c0 110-100 140-194 140" fill="none" stroke="#fb7185" stroke-width="3" stroke-dasharray="10 9" marker-end="url(#roseArrow)"/><path d="M390 615c86 23 140-21 195-107" fill="none" stroke="#fb7185" stroke-width="2.5" stroke-dasharray="8 8" marker-end="url(#roseArrow)" opacity=".76"/><path d="M660 284c-10-62 36-98 110-98" fill="none" stroke="#fbbf24" stroke-width="2.5" stroke-dasharray="8 7" marker-end="url(#cyanArrow)"/>
  <g transform="translate(86 282)"><rect width="166" height="216" rx="16" class="card"/><rect width="166" height="216" rx="16" fill="rgba(8,51,68,.42)" stroke="#22d3ee" stroke-width="2"/><text x="20" y="38" class="text nodeTitle">Business input</text><text x="20" y="66" class="mono nodeSub muted">Rule JSON + data</text><rect x="18" y="88" width="130" height="92" rx="10" fill="#111827" stroke="#1e293b"/><text x="32" y="116" class="mono tiny" fill="#22d3ee">script.id</text><text x="32" y="140" class="mono tiny muted">pricing-rules</text><text x="32" y="164" class="mono tiny" fill="#22d3ee">cart.total</text><text x="32" y="188" class="mono tiny muted">125.00</text></g>
  <g transform="translate(332 282)"><rect width="166" height="216" rx="16" class="card"/><rect width="166" height="216" rx="16" fill="rgba(6,78,59,.42)" stroke="#34d399" stroke-width="2"/><text x="20" y="38" class="text nodeTitle">Schema validation</text><text x="20" y="66" class="mono nodeSub muted">validateScript()</text><circle cx="36" cy="112" r="16" fill="rgba(52,211,153,.16)" stroke="#34d399" stroke-width="2"/><path d="M28 112l6 7 12-15" fill="none" stroke="#34d399" stroke-width="3" stroke-linecap="round"/><text x="62" y="118" class="mono nodeSub">known shape</text><text x="24" y="158" class="mono tiny muted">Invalid paths return</text><text x="24" y="180" class="mono tiny" fill="#fb7185">$.rules[0].actions</text></g>
  <g transform="translate(578 282)"><rect width="166" height="216" rx="16" class="card"/><rect width="166" height="216" rx="16" fill="rgba(120,53,15,.30)" stroke="#fbbf24" stroke-width="2"/><text x="20" y="38" class="text nodeTitle">Registry</text><text x="20" y="66" class="mono nodeSub muted">developer-owned</text><rect x="20" y="92" width="126" height="34" rx="8" fill="#111827" stroke="#334155"/><text x="34" y="115" class="mono tiny">Conditions</text><rect x="20" y="138" width="126" height="34" rx="8" fill="#111827" stroke="#334155"/><text x="34" y="161" class="mono tiny">Actions</text><rect x="20" y="184" width="126" height="20" rx="6" fill="rgba(251,191,36,.10)" stroke="#fbbf24"/><text x="34" y="199" class="mono tiny" fill="#fbbf24">No arbitrary code</text></g>
  <g transform="translate(824 282)"><rect width="166" height="216" rx="16" class="card"/><rect width="166" height="216" rx="16" fill="rgba(8,51,68,.42)" stroke="#22d3ee" stroke-width="2"/><text x="20" y="38" class="text nodeTitle">Synapse</text><text x="20" y="66" class="mono nodeSub muted">deterministic run</text><path d="M42 102h82M42 136h82M42 170h82" stroke="#22d3ee" stroke-width="3" stroke-linecap="round" opacity=".75"/><circle cx="42" cy="102" r="7" fill="#22d3ee"/><circle cx="124" cy="136" r="7" fill="#22d3ee"/><circle cx="42" cy="170" r="7" fill="#22d3ee"/><text x="20" y="204" class="mono tiny muted">same input -> same result</text></g>
  <g transform="translate(1070 282)"><rect width="166" height="216" rx="16" class="card"/><rect width="166" height="216" rx="16" fill="rgba(76,29,149,.42)" stroke="#a78bfa" stroke-width="2"/><text x="20" y="38" class="text nodeTitle">Result object</text><text x="20" y="66" class="mono nodeSub muted">normalized output</text><rect x="20" y="88" width="126" height="92" rx="10" fill="#111827" stroke="#1e293b"/><text x="34" y="116" class="mono tiny" fill="#34d399">ok: true</text><text x="34" y="140" class="mono tiny muted">rulesExecuted: 1</text><text x="34" y="164" class="mono tiny muted">messages: [...]</text><text x="20" y="204" class="mono tiny muted">stable for tests/logs</text></g>
  <g transform="translate(1316 282)"><rect width="198" height="216" rx="16" class="card"/><rect width="198" height="216" rx="16" fill="rgba(76,29,149,.42)" stroke="#a78bfa" stroke-width="2"/><text x="20" y="38" class="text nodeTitle">Match/fail trace</text><text x="20" y="66" class="mono nodeSub muted">why it happened</text><g transform="translate(24 94)"><circle cx="8" cy="8" r="7" fill="#a78bfa"/><line x1="8" y1="18" x2="8" y2="44" stroke="#a78bfa" stroke-width="2"/><circle cx="8" cy="54" r="7" fill="#a78bfa"/><line x1="8" y1="64" x2="8" y2="90" stroke="#a78bfa" stroke-width="2"/><circle cx="8" cy="100" r="7" fill="#a78bfa"/><text x="28" y="13" class="mono tiny muted">script_received</text><text x="28" y="59" class="mono tiny muted">rule_available</text><text x="28" y="105" class="mono tiny muted">execution_completed</text></g></g>
  <g transform="translate(92 608)"><rect width="260" height="92" rx="14" class="card"/><rect width="260" height="92" rx="14" fill="rgba(136,19,55,.32)" stroke="#fb7185" stroke-width="2" stroke-dasharray="8 6"/><text x="22" y="34" class="text label">Validation errors</text><text x="22" y="64" class="mono nodeSub muted">exact JSON paths guide repair</text></g><g transform="translate(458 608)"><rect width="246" height="92" rx="14" class="card"/><rect width="246" height="92" rx="14" fill="rgba(136,19,55,.20)" stroke="#fb7185" stroke-width="2" stroke-dasharray="8 6"/><text x="22" y="34" class="text label">Repair loop</text><text x="22" y="64" class="mono nodeSub muted">fix input before execution</text></g>
  <g transform="translate(770 152)"><rect width="470" height="84" rx="16" class="card"/><rect width="470" height="84" rx="16" fill="rgba(251,191,36,.08)" stroke="#fbbf24" stroke-width="2"/><text x="24" y="34" class="text label">Control boundary</text><text x="24" y="62" class="mono nodeSub muted">Only approved actions, conditions, parameters, and rules can execute.</text></g>
  <g transform="translate(1148 608)"><rect width="366" height="112" rx="18" class="card"/><rect width="366" height="112" rx="18" fill="rgba(76,29,149,.20)" stroke="#a78bfa" stroke-width="2"/><text x="24" y="38" class="text label">Audit-ready decision</text><text x="24" y="70" class="mono nodeSub muted">deterministic result + explanation trace</text><text x="24" y="94" class="mono tiny" fill="#a78bfa">review, snapshot, log, or support ticket</text></g><path d="M1415 500v106" fill="none" stroke="#a78bfa" stroke-width="3.5" marker-end="url(#violetArrow)"/>
  <g transform="translate(86 768)"><rect width="1428" height="58" rx="15" fill="rgba(15,23,42,.78)" stroke="#1e293b"/><text x="24" y="37" class="mono micro" fill="#22d3ee">Inspectability path:</text><text x="238" y="37" class="mono micro muted">Business input -> schema validation -> registry -> rule evaluation -> match/fail trace -> deterministic decision</text></g>
</svg>
